<svg width="152" height="138" viewBox="0 0 152 138" fill="none" xmlns="http://www.w3.org/2000/svg">
<path d="M151.454 54.3588V82.7269H137.645V55.0903H123.86V82.7269H82.459V41.2606H96.2442V27.4308H137.645V54.3588H151.454Z" fill="white"/>
<path d="M151.773 27.4308V41.2606H151.454V55.0903H96.2442V82.7269H82.459V68.8971H68.651V41.2606H82.459V27.4308H124.499V41.2606H137.988V27.4308H151.773Z" fill="white"/>
<path d="M110.166 82.7269H123.86V124.193H110.166V110.752H96.2442V96.5337H110.166V82.7269Z" fill="white"/>
<path d="M137.668 68.8971H123.86V82.7269L137.668 82.7268V68.8971Z" fill="white"/>
<path d="M96.4953 13.8069H110.417V27.5909H124.203V27.6137H124.408V55.5703H110.417V68.9886H96.655V55.2046H82.8698V41.6034H96.4496L96.4953 13.8069Z" fill="white"/>
<path d="M41.537 27.6137V68.9886H41.5599V82.7726H27.7746V96.5794H14.0123V82.7726H0.227051V68.9886H14.0123V0H41.537V13.8069H69.1075V27.6137H41.537Z" fill="white"/>
<path d="M137.965 13.8069V27.6137H124.408V27.5909H124.203V13.8069H137.965Z" fill="white"/>
<path d="M96.655 55.2046H96.4496V55.5932H96.655V55.2046Z" fill="white"/>
<path d="M96.5181 69.3772H110.212V138H96.5181V124.765H55.3907V109.403H69.4954V83.0926H96.5181V69.3772Z" fill="white"/>
<path d="M14.2861 69.7658H41.6968V124.285H27.9801V97.2195H14.2861V69.7658Z" fill="white"/>
<path d="M55.4135 41.9235H41.6968V55.6618H55.4135V41.9235Z" fill="white"/>
<path d="M137.645 69.3772H123.929V83.1155H137.645V69.3772Z" fill="white"/>
<path d="M14.0351 124.285H0.569399V137.794H14.0351V124.285Z" fill="white"/>
</svg>
