<svg width="193" height="134" viewBox="0 0 193 134" fill="none" xmlns="http://www.w3.org/2000/svg">
<path d="M131.867 89.7841V103.596H118.023V133.25H73.8292V73.8695H88.2838V101.03H104.179V89.7841H131.867Z" fill="white"/>
<path d="M176.965 44.7048H162.412V73.2339H176.965V44.7048Z" fill="white"/>
<path d="M15.4005 16.0291H0.579712V30.8681H15.4005V16.0291Z" fill="white"/>
<path d="M119.146 59.2749V74.1139H104.325V118.68H74.6838V104.036H59.863V118.68H30.8073V104.036H15.4005V88.953H59.863V59.7149H74.6838V44.4359H104.325V59.2749H119.146Z" fill="white"/>
<path d="M192.42 30.428V60.1061H133.552V74.9451H118.292V89.7841H103.471V74.9451H88.65V30.428H103.471V15.589H118.292V30.428H133.137V0.75H147.689V15.589H177.599V30.428H192.42Z" fill="white"/>
<path d="M89.6267 44.387V74.7251H74.8547V45.1448H60.1072V74.7251H15.8156V30.3792H30.5632V15.589H74.8547V44.387H89.6267Z" fill="white"/>
</svg>
