<svg width="576" height="504" viewBox="0 0 576 504" fill="none" xmlns="http://www.w3.org/2000/svg">
<path d="M288 360V288H360V360H288ZM288 288V216H360V288H288ZM216 288V216H288V288H216ZM216 360V288H288V360H216ZM144 360V288H216V360H144ZM144 288V216H216V288H144ZM72 360V288H144V360H72ZM0 360V288H72V360H0ZM72 216V144H144V216H72ZM144 216V144H216V216H144ZM216 216V144H288V216H216ZM216 144V72H288V144H216ZM288 144V72H360V144H288ZM216 72V0H288V72H216ZM72 72V0H144V72H72ZM216 360V288H288V360H216ZM144 360V288H216V360H144ZM288 360V288H360V360H288ZM432 360V288H504V360H432ZM432 288V216H504V288H432ZM360 216V144H432V216H360ZM288 216V144H360V216H288ZM288 288V216H360V288H288ZM216 288V216H288V288H216ZM144 288V216H216V288H144ZM144 216V144H216V216H144ZM216 216V144H288V216H216ZM216 144V72H288V144H216ZM288 144V72H360V144H288ZM360 144V72H432V144H360ZM216 504V432H288V504H216ZM216 432V360H288V432H216ZM216 360V288H288V360H216ZM288 360V288H360V360H288ZM144 360V288H216V360H144ZM72 360V288H144V360H72ZM72 432V360H144V432H72ZM0 360V288H72V360H0ZM216 288V216H288V288H216ZM288 288V216H360V288H288ZM216 216V144H288V216H216ZM288 216V144H360V216H288ZM288 144V72H360V144H288ZM216 144V72H288V144H216ZM432 432V360H504V432H432ZM432 504V432H504V504H432ZM504 432V360H576V432H504ZM360 360V288H432V360H360ZM432 288V216H504V288H432ZM432 360V288H504V360H432ZM432 216V144H504V216H432ZM360 216V144H432V216H360ZM504 144V72H576V144H504ZM504 216V144H576V216H504ZM360 432V360H432V432H360ZM288 432V360H360V432H288ZM216 432V360H288V432H216ZM216 504V432H288V504H216ZM216 360V288H288V360H216ZM216 288V216H288V288H216ZM144 432V360H216V432H144ZM144 504V432H216V504H144Z" fill="#1945DF"/>
</svg>
