<svg width="60" height="66" viewBox="0 0 60 66" fill="none" xmlns="http://www.w3.org/2000/svg">
<path d="M0 22.264V16.823H5.45455V22.264H0ZM0 27.705V22.264H5.45455V27.705H0ZM0 33.146V27.705H5.45455V33.146H0ZM0 38.587V33.146H5.45455V38.587H0ZM5.45455 38.587V33.146H10.9091V38.587H5.45455ZM10.9091 38.587V33.146H16.3636V38.587H10.9091ZM5.45455 33.146V27.705H10.9091V33.146H5.45455ZM10.9091 33.146V27.705H16.3636V33.146H10.9091ZM10.9091 27.705V22.264H16.3636V27.705H10.9091ZM16.3636 27.705V22.264H21.8182V27.705H16.3636ZM32.7273 16.823V11.382H38.1818V16.823H32.7273ZM32.7273 11.382V5.94099H38.1818V11.382H32.7273Z" fill="white"/>
<path d="M16.3636 5.94099V0.5H21.8182V5.94099H16.3636ZM21.8182 33.146V27.705H27.2727V33.146H21.8182ZM27.2727 33.146V27.705H32.7273V33.146H27.2727ZM32.7273 33.146V27.705H38.1818V33.146H32.7273ZM38.1818 33.146V27.705H43.6364V33.146H38.1818ZM43.6364 33.146V27.705H49.0909V33.146H43.6364ZM49.0909 33.146V27.705H54.5455V33.146H49.0909ZM49.0909 38.587V33.146H54.5455V38.587H49.0909ZM43.6364 38.587V33.146H49.0909V38.587H43.6364ZM32.7273 38.587V33.146H38.1818V38.587H32.7273ZM27.2727 38.587V33.146H32.7273V38.587H27.2727ZM38.1818 27.705V22.264H43.6364V27.705H38.1818ZM43.6364 27.705V22.264H49.0909V27.705H43.6364ZM49.0909 27.705V22.264H54.5455V27.705H49.0909ZM49.0909 22.264V16.823H54.5455V22.264H49.0909ZM54.5455 22.264V16.823H60V22.264H54.5455ZM43.6364 22.264V16.823H49.0909V22.264H43.6364ZM38.1818 22.264V16.823H43.6364V22.264H38.1818ZM43.6364 16.823V11.382H49.0909V16.823H43.6364ZM49.0909 16.823V11.382H54.5455V16.823H49.0909Z" fill="white"/>
<path d="M10.9091 60.059V54.618H16.3636V60.059H10.9091ZM16.3636 60.059V54.618H21.8182V60.059H16.3636ZM5.45455 60.059V54.618H10.9091V60.059H5.45455ZM5.45455 54.618V49.177H10.9091V54.618H5.45455ZM10.9091 54.618V49.177H16.3636V54.618H10.9091ZM16.3636 54.618V49.177H21.8182V54.618H16.3636ZM16.3636 49.177V43.736H21.8182V49.177H16.3636ZM10.9091 49.177V43.736H16.3636V49.177H10.9091ZM5.45455 49.177V43.736H10.9091V49.177H5.45455ZM10.9091 43.736V38.295H16.3636V43.736H10.9091ZM21.8182 54.618V49.177H27.2727V54.618H21.8182ZM21.8182 49.177V43.736H27.2727V49.177H21.8182ZM21.8182 43.736V38.295H27.2727V43.736H21.8182ZM21.8182 38.295V32.854H27.2727V38.295H21.8182ZM27.2727 43.736V38.295H32.7273V43.736H27.2727ZM32.7273 43.736V38.295H38.1818V43.736H32.7273ZM32.7273 49.177V43.736H38.1818V49.177H32.7273ZM27.2727 49.177V43.736H32.7273V49.177H27.2727ZM27.2727 54.618V49.177H32.7273V54.618H27.2727ZM32.7273 54.618V49.177H38.1818V54.618H32.7273ZM38.1818 54.618V49.177H43.6364V54.618H38.1818ZM38.1818 49.177V43.736H43.6364V49.177H38.1818ZM10.9091 65.5V60.059H16.3636V65.5H10.9091Z" fill="white"/>
<path d="M38.1818 60.059V54.618H43.6364V60.059H38.1818ZM32.7273 60.059V54.618H38.1818V60.059H32.7273ZM43.6364 60.059V54.618H49.0909V60.059H43.6364ZM54.5455 60.059V54.618H60V60.059H54.5455ZM54.5455 54.618V49.177H60V54.618H54.5455ZM49.0909 49.177V43.736H54.5455V49.177H49.0909ZM43.6364 49.177V43.736H49.0909V49.177H43.6364ZM43.6364 54.618V49.177H49.0909V54.618H43.6364ZM38.1818 54.618V49.177H43.6364V54.618H38.1818ZM32.7273 54.618V49.177H38.1818V54.618H32.7273ZM32.7273 49.177V43.736H38.1818V49.177H32.7273ZM38.1818 49.177V43.736H43.6364V49.177H38.1818ZM38.1818 43.736V38.295H43.6364V43.736H38.1818ZM43.6364 43.736V38.295H49.0909V43.736H43.6364ZM49.0909 43.736V38.295H54.5455V43.736H49.0909Z" fill="white"/>
</svg>
