<svg width="351" height="264" viewBox="0 0 351 264" fill="none" xmlns="http://www.w3.org/2000/svg">
<path d="M262.727 87.9091L218.909 87.9091L218.909 44.0909L262.727 44.0909L262.727 87.9091ZM218.909 87.9091L175.091 87.9091L175.091 44.0909L218.909 44.0909L218.909 87.9091ZM175.091 87.9091L131.273 87.9091L131.273 44.091L175.091 44.0909L175.091 87.9091ZM175.091 44.0909L131.273 44.091L131.273 0.272791L175.091 0.272789L175.091 44.0909ZM175.091 131.727L131.273 131.727L131.273 87.9091L175.091 87.9091L175.091 131.727ZM175.091 175.546L131.273 175.546L131.273 131.727L175.091 131.727L175.091 175.546ZM218.909 175.546L175.091 175.546L175.091 131.727L218.909 131.727L218.909 175.546ZM175.091 219.364L131.273 219.364L131.273 175.546L175.091 175.546L175.091 219.364ZM131.273 87.9091L87.4546 87.9091L87.4545 44.091L131.273 44.091L131.273 87.9091ZM131.273 44.091L87.4545 44.091L87.4545 0.272793L131.273 0.272791L131.273 44.091ZM87.4546 87.9091L43.6364 87.9091L43.6364 44.091L87.4545 44.091L87.4546 87.9091ZM87.4545 44.091L43.6364 44.091L43.6364 0.272795L87.4545 0.272793L87.4545 44.091ZM43.6364 44.091L-0.181833 44.091L-0.181835 0.272797L43.6364 0.272795L43.6364 44.091ZM43.6364 87.9091L-0.181831 87.9091L-0.181833 44.091L43.6364 44.091L43.6364 87.9091Z" fill="#1945DF"/>
<path d="M131.273 44.091L87.4545 44.091L87.4545 0.272793L131.273 0.272791L131.273 44.091ZM87.4545 44.091L43.6364 44.091L43.6364 0.272795L87.4545 0.272793L87.4545 44.091ZM43.6364 44.091L-0.181833 44.091L-0.181835 0.272797L43.6364 0.272795L43.6364 44.091ZM43.6364 87.9091L-0.181831 87.9091L-0.181833 44.091L43.6364 44.091L43.6364 87.9091ZM87.4546 87.9091L43.6364 87.9091L43.6364 44.091L87.4545 44.091L87.4546 87.9091ZM87.4546 131.727L43.6364 131.727L43.6364 87.9091L87.4546 87.9091L87.4546 131.727ZM131.273 131.727L87.4546 131.727L87.4546 87.9091L131.273 87.9091L131.273 131.727Z" fill="#1945DF"/>
<path d="M350.364 44.0909L306.545 44.0909L306.545 0.272783L350.364 0.272781L350.364 44.0909ZM350.364 87.9091L306.545 87.9091L306.545 44.0909L350.364 44.0909L350.364 87.9091ZM306.545 87.9091L262.727 87.9091L262.727 44.0909L306.545 44.0909L306.545 87.9091ZM350.364 131.727L306.545 131.727L306.545 87.9091L350.364 87.9091L350.364 131.727ZM350.364 175.546L306.545 175.546L306.545 131.727L350.364 131.727L350.364 175.546ZM306.545 175.546L262.727 175.546L262.727 131.727L306.545 131.727L306.545 175.546ZM262.727 175.546L218.909 175.546L218.909 131.727L262.727 131.727L262.727 175.546ZM218.909 175.546L175.091 175.546L175.091 131.727L218.909 131.727L218.909 175.546ZM218.909 131.727L175.091 131.727L175.091 87.9091L218.909 87.9091L218.909 131.727ZM218.909 219.364L175.091 219.364L175.091 175.546L218.909 175.546L218.909 219.364ZM262.727 219.364L218.909 219.364L218.909 175.546L262.727 175.546L262.727 219.364ZM306.545 219.364L262.727 219.364L262.727 175.546L306.545 175.546L306.545 219.364ZM350.364 263.182L306.545 263.182L306.545 219.364L350.364 219.364L350.364 263.182ZM306.545 263.182L262.727 263.182L262.727 219.364L306.545 219.364L306.545 263.182ZM262.727 263.182L218.909 263.182L218.909 219.364L262.727 219.364L262.727 263.182Z" fill="#1945DF"/>
<path d="M131.273 44.091L87.4545 44.091L87.4545 0.272793L131.273 0.272791L131.273 44.091ZM131.273 87.9091L87.4546 87.9091L87.4545 44.091L131.273 44.091L131.273 87.9091ZM175.091 87.9091L131.273 87.9091L131.273 44.091L175.091 44.0909L175.091 87.9091ZM218.909 87.9091L175.091 87.9091L175.091 44.0909L218.909 44.0909L218.909 87.9091ZM218.909 44.0909L175.091 44.0909L175.091 0.272789L218.909 0.272787L218.909 44.0909ZM262.727 87.9091L218.909 87.9091L218.909 44.0909L262.727 44.0909L262.727 87.9091ZM262.727 131.727L218.909 131.727L218.909 87.9091L262.727 87.9091L262.727 131.727ZM175.091 175.546L131.273 175.546L131.273 131.727L175.091 131.727L175.091 175.546ZM218.909 175.546L175.091 175.546L175.091 131.727L218.909 131.727L218.909 175.546ZM306.545 175.546L262.727 175.546L262.727 131.727L306.545 131.727L306.545 175.546ZM218.909 131.727L175.091 131.727L175.091 87.9091L218.909 87.9091L218.909 131.727Z" fill="#1945DF"/>
</svg>
