<svg width="395" height="395" viewBox="0 0 395 395" fill="none" xmlns="http://www.w3.org/2000/svg">
<path d="M175.273 219.091V175.273H219.091V219.091H175.273ZM175.273 175.273V131.455H219.091V175.273H175.273ZM175.273 131.455L175.273 87.6364H219.091L219.091 131.455H175.273ZM219.091 131.455L219.091 87.6364L262.909 87.6364V131.455H219.091ZM131.455 131.455L131.455 87.6364L175.273 87.6364L175.273 131.455H131.455ZM87.6364 131.455V87.6364H131.455L131.455 131.455L87.6364 131.455ZM87.6364 175.273L87.6364 131.455L131.455 131.455V175.273L87.6364 175.273ZM43.8182 131.455L43.8182 87.6364L87.6364 87.6364V131.455H43.8182ZM175.273 87.6364V43.8182L219.091 43.8182V87.6364H175.273ZM219.091 87.6364V43.8182L262.909 43.8182V87.6364L219.091 87.6364ZM175.273 43.8182V0L219.091 0V43.8182L175.273 43.8182ZM219.091 43.8182V0L262.909 0V43.8182L219.091 43.8182Z" fill="white"/>
<path d="M306.727 175.273V131.455H350.545V175.273H306.727ZM306.727 131.455V87.6364L350.545 87.6364V131.455H306.727ZM306.727 87.6364V43.8182L350.545 43.8182V87.6364L306.727 87.6364ZM306.727 43.8182V0L350.545 0V43.8182L306.727 43.8182ZM350.545 43.8182V0L394.364 0V43.8182L350.545 43.8182ZM262.909 43.8182V0L306.727 0V43.8182L262.909 43.8182ZM262.909 87.6364V43.8182L306.727 43.8182V87.6364H262.909ZM219.091 87.6364V43.8182L262.909 43.8182V87.6364L219.091 87.6364ZM219.091 43.8182V0L262.909 0V43.8182L219.091 43.8182ZM175.273 43.8182V0L219.091 0V43.8182L175.273 43.8182ZM131.455 43.8182V0L175.273 0V43.8182L131.455 43.8182ZM131.455 87.6364V43.8182L175.273 43.8182V87.6364L131.455 87.6364Z" fill="white"/>
<path d="M219.091 306.727L219.091 262.909H262.909V306.727H219.091ZM175.273 306.727L175.273 262.909L219.091 262.909L219.091 306.727L175.273 306.727ZM175.273 262.909V219.091H219.091V262.909L175.273 262.909ZM131.455 306.727L131.455 262.909H175.273L175.273 306.727H131.455ZM87.6364 306.727V262.909H131.455L131.455 306.727H87.6364ZM87.6364 262.909L87.6364 219.091L131.455 219.091V262.909H87.6364ZM87.6364 219.091V175.273L131.455 175.273V219.091L87.6364 219.091ZM87.6364 175.273L87.6364 131.455L131.455 131.455V175.273L87.6364 175.273ZM131.455 175.273V131.455H175.273V175.273H131.455ZM43.8182 175.273L43.8182 131.455H87.6364L87.6364 175.273H43.8182ZM43.8182 219.091L43.8182 175.273H87.6364V219.091H43.8182ZM43.8182 262.909L43.8182 219.091H87.6364L87.6364 262.909H43.8182ZM0 306.727L0 262.909H43.8182L43.8182 306.727H0ZM0 262.909L0 219.091H43.8182L43.8182 262.909H0ZM0 219.091L0 175.273H43.8182L43.8182 219.091H0Z" fill="white"/>
<path d="M350.545 350.545V306.727H394.364V350.545H350.545ZM306.727 394.364V350.545H350.545V394.364H306.727ZM306.727 350.545V306.727H350.545V350.545H306.727ZM306.727 306.727V262.909H350.545V306.727H306.727ZM306.727 262.909V219.091H350.545V262.909H306.727ZM306.727 175.273V131.455H350.545V175.273H306.727ZM262.909 175.273V131.455L306.727 131.455V175.273L262.909 175.273ZM262.909 131.455V87.6364H306.727V131.455L262.909 131.455ZM306.727 131.455V87.6364L350.545 87.6364V131.455H306.727ZM262.909 87.6364V43.8182L306.727 43.8182V87.6364H262.909ZM219.091 87.6364V43.8182L262.909 43.8182V87.6364L219.091 87.6364ZM175.273 87.6364V43.8182L219.091 43.8182V87.6364H175.273ZM175.273 131.455L175.273 87.6364H219.091L219.091 131.455H175.273ZM175.273 175.273V131.455H219.091V175.273H175.273ZM219.091 175.273V131.455H262.909V175.273H219.091ZM175.273 219.091V175.273H219.091V219.091H175.273ZM131.455 219.091V175.273H175.273V219.091H131.455ZM87.6364 131.455V87.6364H131.455L131.455 131.455L87.6364 131.455ZM87.6364 175.273L87.6364 131.455L131.455 131.455V175.273L87.6364 175.273ZM87.6364 262.909L87.6364 219.091L131.455 219.091V262.909H87.6364ZM131.455 175.273V131.455H175.273V175.273H131.455Z" fill="white"/>
</svg>
