<svg width="721" height="720" viewBox="0 0 721 720" fill="none" xmlns="http://www.w3.org/2000/svg">
<path d="M0 288V216H72V288H0ZM0 360V288H72V360H0ZM0 432V360H72V432H0ZM0 504V432H72V504H0ZM72 504V432H144V504H72ZM144 504V432H216V504H144ZM72 432V360H144V432H72ZM144 432V360H216V432H144ZM144 360V288H216V360H144ZM216 360V288H288V360H216ZM432 216V144H504V216H432ZM432 144V72H504V144H432ZM648.141 72V-3.43323e-05H720.141V72H648.141ZM576.141 72V-3.43323e-05H648.141V72H576.141ZM576.141 144V72H648.141V144H576.141ZM648.141 144V72H720.141V144H648.141ZM504.141 144V72H576.141V144H504.141ZM432.141 144V72H504.141V144H432.141ZM576.141 216V144H648.141V216H576.141ZM576.141 288V216H648.141V288H576.141ZM576.141 360V288H648.141V360H576.141ZM648.141 288V216H720.141V288H648.141ZM504.141 288V216H576.141V288H504.141ZM144.141 648V576H216.141V648H144.141ZM144.141 576V504H216.141V576H144.141ZM72 720V648H144V720H72ZM144 720V648H216V720H144ZM216 648V576H288V648H216ZM72 648V576H144V648H72ZM0 648V576H72V648H0ZM0 576V504H72V576H0ZM72 576V504H144V576H72ZM216 432V360H288V432H216ZM216 360V288H288V360H216ZM288 360V288H360V360H288ZM360 360V288H432V360H360ZM288 288V216H360V288H288ZM216 288V216H288V288H216ZM144 360V288H216V360H144ZM72 360V288H144V360H72ZM0 288V216H72V288H0ZM71.7188 576V504H143.719V576H71.7188ZM215.719 576V504H287.719V576H215.719ZM287.719 576V504H359.719V576H287.719ZM287.719 504V432H359.719V504H287.719ZM287.719 360V288H359.719V360H287.719ZM143.719 360V288H215.719V360H143.719ZM143.719 432V360H215.719V432H143.719ZM71.7188 360V288H143.719V360H71.7188Z" fill="white"/>
</svg>
