<svg width="439" height="263" viewBox="0 0 439 263" fill="none" xmlns="http://www.w3.org/2000/svg">
<path d="M262.909 262.909L219.091 262.909L219.091 219.091L262.909 219.091L262.909 262.909ZM219.091 262.909L175.273 262.909L175.273 219.091L219.091 219.091L219.091 262.909ZM175.273 262.909L131.455 262.909L131.455 219.091L175.273 219.091L175.273 262.909ZM175.273 219.091L131.455 219.091L131.455 175.273L175.273 175.273L175.273 219.091ZM131.455 262.909L87.6364 262.909L87.6364 219.091L131.455 219.091L131.455 262.909ZM131.455 219.091L87.6364 219.091L87.6364 175.273L131.455 175.273L131.455 219.091ZM87.6364 262.909L43.8182 262.909L43.8182 219.091L87.6364 219.091L87.6364 262.909ZM87.6364 219.091L43.8182 219.091L43.8182 175.273L87.6364 175.273L87.6364 219.091ZM43.8182 219.091L-1.91535e-06 219.091L-3.83071e-06 175.273L43.8182 175.273L43.8182 219.091ZM43.8182 262.909L0 262.909L-1.91535e-06 219.091L43.8182 219.091L43.8182 262.909Z" fill="#1945DF"/>
<path d="M219.091 131.455L175.273 131.455L175.273 87.6364L219.091 87.6364L219.091 131.455ZM175.273 131.455L131.455 131.455L131.455 87.6364L175.273 87.6364L175.273 131.455ZM131.455 131.455L87.6364 131.455L87.6364 87.6364L131.455 87.6364L131.455 131.455ZM87.6364 131.455L43.8182 131.455L43.8182 87.6364L87.6364 87.6364L87.6364 131.455ZM43.8182 131.455L-5.74606e-06 131.455L-7.66141e-06 87.6364L43.8182 87.6364L43.8182 131.455ZM43.8182 87.6364L-7.66141e-06 87.6364L-9.57677e-06 43.8183L43.8182 43.8183L43.8182 87.6364ZM43.8182 43.8183L-9.57677e-06 43.8183L-1.14921e-05 6.10352e-05L43.8182 5.91198e-05L43.8182 43.8183ZM87.6364 87.6364L43.8182 87.6364L43.8182 43.8183L87.6364 43.8183L87.6364 87.6364ZM43.8182 175.273L-3.83071e-06 175.273L-5.74606e-06 131.455L43.8182 131.455L43.8182 175.273ZM87.6364 175.273L43.8182 175.273L43.8182 131.455L87.6364 131.455L87.6364 175.273ZM131.455 175.273L87.6364 175.273L87.6364 131.455L131.455 131.455L131.455 175.273ZM131.455 219.091L87.6364 219.091L87.6364 175.273L131.455 175.273L131.455 219.091ZM87.6364 219.091L43.8182 219.091L43.8182 175.273L87.6364 175.273L87.6364 219.091ZM43.8182 219.091L-1.91535e-06 219.091L-3.83071e-06 175.273L43.8182 175.273L43.8182 219.091ZM43.8182 262.909L0 262.909L-1.91535e-06 219.091L43.8182 219.091L43.8182 262.909ZM87.6364 262.909L43.8182 262.909L43.8182 219.091L87.6364 219.091L87.6364 262.909Z" fill="#1945DF"/>
<path d="M350.545 219.091L306.727 219.091L306.727 175.273L350.545 175.273L350.545 219.091ZM350.545 262.909L306.727 262.909L306.727 219.091L350.545 219.091L350.545 262.909ZM306.727 262.909L262.909 262.909L262.909 219.091L306.727 219.091L306.727 262.909Z" fill="#1945DF"/>
<path d="M394.364 87.6364L350.545 87.6364L350.545 43.8183L394.364 43.8183L394.364 87.6364ZM438.182 131.455L394.364 131.455L394.364 87.6364L438.182 87.6364L438.182 131.455ZM394.364 131.455L350.545 131.455L350.545 87.6364L394.364 87.6364L394.364 131.455ZM350.545 131.455L306.727 131.455L306.727 87.6364L350.545 87.6364L350.545 131.455ZM306.727 131.455L262.909 131.455L262.909 87.6364L306.727 87.6364L306.727 131.455ZM219.091 131.455L175.273 131.455L175.273 87.6364L219.091 87.6364L219.091 131.455ZM219.091 175.273L175.273 175.273L175.273 131.455L219.091 131.455L219.091 175.273ZM175.273 175.273L131.455 175.273L131.455 131.455L175.273 131.455L175.273 175.273ZM175.273 131.455L131.455 131.455L131.455 87.6364L175.273 87.6364L175.273 131.455ZM131.455 175.273L87.6364 175.273L87.6364 131.455L131.455 131.455L131.455 175.273ZM131.455 219.091L87.6364 219.091L87.6364 175.273L131.455 175.273L131.455 219.091ZM131.455 262.909L87.6364 262.909L87.6364 219.091L131.455 219.091L131.455 262.909ZM175.273 262.909L131.455 262.909L131.455 219.091L175.273 219.091L175.273 262.909ZM219.091 262.909L175.273 262.909L175.273 219.091L219.091 219.091L219.091 262.909ZM219.091 219.091L175.273 219.091L175.273 175.273L219.091 175.273L219.091 219.091ZM262.909 262.909L219.091 262.909L219.091 219.091L262.909 219.091L262.909 262.909Z" fill="#1945DF"/>
</svg>
