<svg width="577" height="576" viewBox="0 0 577 576" fill="none" xmlns="http://www.w3.org/2000/svg">
<path d="M72 288V216H144V288H72ZM216 288V216H288V288H216ZM288 288V216H360V288H288ZM288 216V144H360V216H288ZM288 72V0H360V72H288ZM144 72V0H216V72H144ZM144 144V72H216V144H144ZM72 72V0H144V72H72ZM72.2813 432V360H144.281V432H72.2813ZM72.2813 360V288H144.281V360H72.2813ZM0.28125 360V288H72.2813V360H0.28125ZM144.281 360V288H216.281V360H144.281ZM216.281 360V288H288.281V360H216.281ZM0.28125 288V216H72.2813V288H0.28125ZM72.2813 288V216H144.281V288H72.2813ZM72.2813 216V144H144.281V216H72.2813ZM216.281 216V144H288.281V216H216.281ZM288.281 144V72H360.281V144H288.281ZM288.281 72V0H360.281V72H288.281ZM360.281 72V0H432.281V72H360.281ZM432.281 144V72H504.281V144H432.281ZM504 504V432H576V504H504ZM432 576V504H504V576H432ZM432 504V432H504V504H432ZM432 432V360H504V432H432ZM432 360V288H504V360H432ZM432 216V144H504V216H432ZM360 216V144H432V216H360ZM360 144V72H432V144H360ZM432 144V72H504V144H432ZM360 72V-3.43323e-05H432V72H360ZM288 72V-3.43323e-05H360V72H288ZM216 72V-3.43323e-05H288V72H216ZM216 144V72H288V144H216ZM216 216V144H288V216H216ZM288 216V144H360V216H288ZM216 288V216H288V288H216ZM144 288V216H216V288H144ZM72 144V72H144V144H72ZM72 216V144H144V216H72ZM72 360V288H144V360H72ZM144 216V144H216V216H144ZM432.141 504V432H504.141V504H432.141ZM432.141 432V360H504.141V432H432.141ZM432.141 360V288H504.141V360H432.141ZM504.141 360V288H576.141V360H504.141ZM360.141 360V288H432.141V360H360.141ZM288.141 360V288H360.141V360H288.141ZM288.141 432V360H360.141V432H288.141ZM216.141 360V288H288.141V360H216.141ZM432.141 288V216H504.141V288H432.141ZM504.141 288V216H576.141V288H504.141ZM432.141 216V144H504.141V216H432.141ZM504.141 216V144H576.141V216H504.141ZM504.141 144V72H576.141V144H504.141ZM432.141 144V72H504.141V144H432.141Z" fill="white"/>
</svg>
