<svg width="482" height="439" viewBox="0 0 482 439" fill="none" xmlns="http://www.w3.org/2000/svg">
<path d="M175.273 175.273L219.091 175.273L219.091 219.091L175.273 219.091L175.273 175.273ZM219.091 175.273L262.909 175.273L262.909 219.091L219.091 219.091L219.091 175.273ZM262.909 175.273L306.727 175.273L306.727 219.091L262.909 219.091L262.909 175.273ZM262.909 219.091L306.727 219.091L306.727 262.909L262.909 262.909L262.909 219.091ZM262.909 131.455L306.727 131.455L306.727 175.273L262.909 175.273L262.909 131.455ZM262.909 87.6364L306.727 87.6364L306.727 131.455L262.909 131.455L262.909 87.6364ZM219.091 87.6363L262.909 87.6364L262.909 131.455L219.091 131.455L219.091 87.6363ZM262.909 43.8182L306.727 43.8182L306.727 87.6364L262.909 87.6364L262.909 43.8182ZM306.727 175.273L350.545 175.273L350.545 219.091L306.727 219.091L306.727 175.273ZM306.727 219.091L350.545 219.091L350.545 262.909L306.727 262.909L306.727 219.091ZM350.545 175.273L394.364 175.273L394.364 219.091L350.545 219.091L350.545 175.273ZM350.545 219.091L394.364 219.091L394.364 262.909L350.545 262.909L350.545 219.091ZM394.364 219.091L438.182 219.091L438.182 262.909L394.364 262.909L394.364 219.091ZM394.364 175.273L438.182 175.273L438.182 219.091L394.364 219.091L394.364 175.273Z" fill="#1945DF"/>
<path d="M219.091 306.727L262.909 306.727L262.909 350.545L219.091 350.545L219.091 306.727ZM262.909 306.727L306.727 306.727L306.727 350.545L262.909 350.545L262.909 306.727ZM306.727 306.727L350.545 306.727L350.545 350.545L306.727 350.545L306.727 306.727ZM350.545 306.727L394.364 306.727L394.364 350.545L350.545 350.545L350.545 306.727ZM394.364 306.727L438.182 306.727L438.182 350.545L394.364 350.545L394.364 306.727ZM394.364 350.545L438.182 350.545L438.182 394.364L394.364 394.364L394.364 350.545ZM438.182 350.545L482 350.545L482 394.364L438.182 394.364L438.182 350.545ZM394.364 394.364L438.182 394.364L438.182 438.182L394.364 438.182L394.364 394.364ZM350.545 350.545L394.364 350.545L394.364 394.364L350.545 394.364L350.545 350.545ZM394.364 262.909L438.182 262.909L438.182 306.727L394.364 306.727L394.364 262.909ZM350.545 262.909L394.364 262.909L394.364 306.727L350.545 306.727L350.545 262.909ZM306.727 262.909L350.545 262.909L350.545 306.727L306.727 306.727L306.727 262.909ZM306.727 219.091L350.545 219.091L350.545 262.909L306.727 262.909L306.727 219.091ZM350.545 219.091L394.364 219.091L394.364 262.909L350.545 262.909L350.545 219.091ZM394.364 219.091L438.182 219.091L438.182 262.909L394.364 262.909L394.364 219.091ZM394.364 175.273L438.182 175.273L438.182 219.091L394.364 219.091L394.364 175.273ZM350.545 175.273L394.364 175.273L394.364 219.091L350.545 219.091L350.545 175.273ZM350.545 131.455L394.364 131.455L394.364 175.273L350.545 175.273L350.545 131.455ZM306.727 131.455L350.545 131.455L350.545 175.273L306.727 175.273L306.727 131.455Z" fill="#1945DF"/>
<path d="M87.6363 219.091L131.455 219.091L131.455 262.909L87.6363 262.909L87.6363 219.091ZM87.6363 175.273L131.455 175.273L131.455 219.091L87.6363 219.091L87.6363 175.273ZM131.455 175.273L175.273 175.273L175.273 219.091L131.455 219.091L131.455 175.273ZM87.6363 131.455L131.455 131.455L131.455 175.273L87.6363 175.273L87.6363 131.455ZM87.6363 87.6363L131.455 87.6363L131.455 131.455L87.6363 131.455L87.6363 87.6363ZM131.455 87.6363L175.273 87.6363L175.273 131.455L131.455 131.455L131.455 87.6363ZM175.273 87.6363L219.091 87.6363L219.091 131.455L175.273 131.455L175.273 87.6363ZM219.091 87.6363L262.909 87.6364L262.909 131.455L219.091 131.455L219.091 87.6363ZM219.091 131.455L262.909 131.455L262.909 175.273L219.091 175.273L219.091 131.455ZM219.091 43.8182L262.909 43.8182L262.909 87.6364L219.091 87.6363L219.091 43.8182ZM175.273 43.8182L219.091 43.8182L219.091 87.6363L175.273 87.6363L175.273 43.8182ZM131.455 43.8182L175.273 43.8182L175.273 87.6363L131.455 87.6363L131.455 43.8182ZM87.6364 -1.72382e-05L131.455 -1.53228e-05L131.455 43.8182L87.6364 43.8182L87.6364 -1.72382e-05ZM131.455 -1.53228e-05L175.273 -1.34075e-05L175.273 43.8182L131.455 43.8182L131.455 -1.53228e-05ZM175.273 -1.34075e-05L219.091 -1.14921e-05L219.091 43.8182L175.273 43.8182L175.273 -1.34075e-05Z" fill="#1945DF"/>
<path d="M43.8182 350.545L87.6363 350.545L87.6363 394.364L43.8182 394.364L43.8182 350.545ZM-1.34075e-05 306.727L43.8182 306.727L43.8182 350.545L-1.53228e-05 350.545L-1.34075e-05 306.727ZM43.8182 306.727L87.6363 306.727L87.6363 350.545L43.8182 350.545L43.8182 306.727ZM87.6363 306.727L131.455 306.727L131.455 350.545L87.6363 350.545L87.6363 306.727ZM131.455 306.727L175.273 306.727L175.273 350.545L131.455 350.545L131.455 306.727ZM219.091 306.727L262.909 306.727L262.909 350.545L219.091 350.545L219.091 306.727ZM219.091 262.909L262.909 262.909L262.909 306.727L219.091 306.727L219.091 262.909ZM262.909 262.909L306.727 262.909L306.727 306.727L262.909 306.727L262.909 262.909ZM262.909 306.727L306.727 306.727L306.727 350.545L262.909 350.545L262.909 306.727ZM306.727 262.909L350.545 262.909L350.545 306.727L306.727 306.727L306.727 262.909ZM306.727 219.091L350.545 219.091L350.545 262.909L306.727 262.909L306.727 219.091ZM306.727 175.273L350.545 175.273L350.545 219.091L306.727 219.091L306.727 175.273ZM262.909 175.273L306.727 175.273L306.727 219.091L262.909 219.091L262.909 175.273ZM219.091 175.273L262.909 175.273L262.909 219.091L219.091 219.091L219.091 175.273ZM219.091 219.091L262.909 219.091L262.909 262.909L219.091 262.909L219.091 219.091ZM175.273 175.273L219.091 175.273L219.091 219.091L175.273 219.091L175.273 175.273ZM175.273 131.455L219.091 131.455L219.091 175.273L175.273 175.273L175.273 131.455ZM262.909 87.6364L306.727 87.6364L306.727 131.455L262.909 131.455L262.909 87.6364ZM219.091 87.6363L262.909 87.6364L262.909 131.455L219.091 131.455L219.091 87.6363ZM131.455 87.6363L175.273 87.6363L175.273 131.455L131.455 131.455L131.455 87.6363ZM219.091 131.455L262.909 131.455L262.909 175.273L219.091 175.273L219.091 131.455Z" fill="#1945DF"/>
</svg>
