<svg width="438" height="263" viewBox="0 0 438 263" fill="none" xmlns="http://www.w3.org/2000/svg">
<path d="M262.909 0.0909271L262.909 43.9091L219.091 43.9091L219.091 0.0909232L262.909 0.0909271ZM262.909 43.9091L262.909 87.7273L219.091 87.7273L219.091 43.9091L262.909 43.9091ZM219.091 43.9091L219.091 87.7273L175.273 87.7273L175.273 43.9091L219.091 43.9091ZM306.727 43.9091L306.727 87.7273L262.909 87.7273L262.909 43.9091L306.727 43.9091ZM350.546 43.9091L350.546 87.7273L306.727 87.7273L306.727 43.9091L350.546 43.9091ZM350.546 0.0909347L350.546 43.9091L306.727 43.9091L306.727 0.0909309L350.546 0.0909347ZM394.364 43.9091L394.364 87.7273L350.546 87.7273L350.546 43.9091L394.364 43.9091ZM262.909 87.7273L262.909 131.545L219.091 131.545L219.091 87.7273L262.909 87.7273ZM219.091 87.7273L219.091 131.545L175.273 131.545L175.273 87.7273L219.091 87.7273ZM262.909 131.545L262.909 175.364L219.091 175.364L219.091 131.545L262.909 131.545ZM219.091 131.545L219.091 175.364L175.273 175.364L175.273 131.545L219.091 131.545ZM219.091 175.364L219.091 219.182L175.273 219.182L175.273 175.364L219.091 175.364ZM262.909 175.364L262.909 219.182L219.091 219.182L219.091 175.364L262.909 175.364Z" fill="#1945DF"/>
<path d="M131.455 0.0909156L131.455 43.9091L87.6364 43.9091L87.6364 0.0909117L131.455 0.0909156ZM131.455 43.9091L131.455 87.7273L87.6364 87.7273L87.6364 43.9091L131.455 43.9091ZM131.455 87.7273L131.455 131.545L87.6364 131.545L87.6364 87.7273L131.455 87.7273ZM131.455 131.545L131.455 175.364L87.6364 175.364L87.6364 131.545L131.455 131.545ZM131.455 175.364L131.455 219.182L87.6364 219.182L87.6364 175.364L131.455 175.364ZM87.6364 175.364L87.6364 219.182L43.8182 219.182L43.8182 175.364L87.6364 175.364ZM87.6364 219.182L87.6364 263L43.8182 263L43.8182 219.182L87.6364 219.182ZM43.8182 175.364L43.8182 219.182L3.43483e-05 219.182L3.8179e-05 175.364L43.8182 175.364ZM87.6364 131.545L87.6364 175.364L43.8182 175.364L43.8182 131.545L87.6364 131.545ZM175.273 175.364L175.273 219.182L131.455 219.182L131.455 175.364L175.273 175.364ZM175.273 131.545L175.273 175.364L131.455 175.364L131.455 131.545L175.273 131.545ZM175.273 87.7273L175.273 131.545L131.455 131.545L131.455 87.7273L175.273 87.7273ZM219.091 87.7273L219.091 131.545L175.273 131.545L175.273 87.7273L219.091 87.7273ZM219.091 131.545L219.091 175.364L175.273 175.364L175.273 131.545L219.091 131.545ZM219.091 175.364L219.091 219.182L175.273 219.182L175.273 175.364L219.091 175.364ZM262.909 175.364L262.909 219.182L219.091 219.182L219.091 175.364L262.909 175.364ZM262.909 131.545L262.909 175.364L219.091 175.364L219.091 131.545L262.909 131.545ZM306.727 131.545L306.727 175.364L262.909 175.364L262.909 131.545L306.727 131.545ZM306.727 87.7273L306.727 131.545L262.909 131.545L262.909 87.7273L306.727 87.7273Z" fill="#1945DF"/>
<path d="M350.546 0.0909347L350.546 43.9091L306.727 43.9091L306.727 0.0909309L350.546 0.0909347ZM306.727 0.0909309L306.727 43.9091L262.909 43.9091L262.909 0.0909271L306.727 0.0909309ZM394.364 0.0909386L394.364 43.9091L350.546 43.9091L350.546 0.0909347L394.364 0.0909386Z" fill="#1945DF"/>
<path d="M131.455 0.0909156L131.455 43.9091L87.6364 43.9091L87.6364 0.0909117L131.455 0.0909156ZM175.273 0.0909194L175.273 43.9091L131.455 43.9091L131.455 0.0909156L175.273 0.0909194ZM175.273 43.9091L175.273 87.7273L131.455 87.7273L131.455 43.9091L175.273 43.9091ZM131.455 43.9091L131.455 87.7273L87.6364 87.7273L87.6364 43.9091L131.455 43.9091ZM175.273 87.7273L175.273 131.545L131.455 131.545L131.455 87.7273L175.273 87.7273ZM219.091 87.7273L219.091 131.545L175.273 131.545L175.273 87.7273L219.091 87.7273ZM262.909 87.7273L262.909 131.545L219.091 131.545L219.091 87.7273L262.909 87.7273ZM262.909 43.9091L262.909 87.7273L219.091 87.7273L219.091 43.9091L262.909 43.9091ZM262.909 0.0909271L262.909 43.9091L219.091 43.9091L219.091 0.0909232L262.909 0.0909271ZM219.091 0.0909232L219.091 43.9091L175.273 43.9091L175.273 0.0909194L219.091 0.0909232ZM350.546 43.9091L350.546 87.7273L306.727 87.7273L306.727 43.9091L350.546 43.9091ZM350.546 0.0909347L350.546 43.9091L306.727 43.9091L306.727 0.0909309L350.546 0.0909347ZM306.727 0.0909309L306.727 43.9091L262.909 43.9091L262.909 0.0909271L306.727 0.0909309Z" fill="#1945DF"/>
</svg>
