<svg width="437" height="263" viewBox="0 0 437 263" fill="none" xmlns="http://www.w3.org/2000/svg">
<path d="M175.273 -1.14921e-05L219.091 -9.57677e-06L219.091 43.8182L175.273 43.8182L175.273 -1.14921e-05ZM219.091 -9.57677e-06L262.909 -7.66142e-06L262.909 43.8182L219.091 43.8182L219.091 -9.57677e-06ZM262.909 -7.66142e-06L306.727 -5.74606e-06L306.727 43.8182L262.909 43.8182L262.909 -7.66142e-06ZM262.909 43.8182L306.727 43.8182L306.727 87.6363L262.909 87.6363L262.909 43.8182ZM306.727 -5.74606e-06L350.546 -3.83071e-06L350.545 43.8182L306.727 43.8182L306.727 -5.74606e-06ZM306.727 43.8182L350.545 43.8182L350.545 87.6363L306.727 87.6363L306.727 43.8182ZM350.546 -3.83071e-06L394.364 -1.91535e-06L394.364 43.8182L350.545 43.8182L350.546 -3.83071e-06ZM350.545 43.8182L394.364 43.8182L394.364 87.6364L350.545 87.6363L350.545 43.8182ZM394.364 43.8182L438.182 43.8182L438.182 87.6364L394.364 87.6364L394.364 43.8182ZM394.364 -1.91535e-06L438.182 0L438.182 43.8182L394.364 43.8182L394.364 -1.91535e-06Z" fill="#1945DF"/>
<path d="M219.091 131.455L262.909 131.455L262.909 175.273L219.091 175.273L219.091 131.455ZM262.909 131.455L306.727 131.455L306.727 175.273L262.909 175.273L262.909 131.455ZM306.727 131.455L350.545 131.455L350.545 175.273L306.727 175.273L306.727 131.455ZM350.545 131.455L394.364 131.455L394.364 175.273L350.545 175.273L350.545 131.455ZM394.364 131.455L438.182 131.455L438.182 175.273L394.364 175.273L394.364 131.455ZM394.364 175.273L438.182 175.273L438.182 219.091L394.364 219.091L394.364 175.273ZM394.364 219.091L438.182 219.091L438.182 262.909L394.364 262.909L394.364 219.091ZM350.545 175.273L394.364 175.273L394.364 219.091L350.545 219.091L350.545 175.273ZM394.364 87.6364L438.182 87.6364L438.182 131.455L394.364 131.455L394.364 87.6364ZM350.545 87.6363L394.364 87.6364L394.364 131.455L350.545 131.455L350.545 87.6363ZM306.727 87.6363L350.545 87.6363L350.545 131.455L306.727 131.455L306.727 87.6363ZM306.727 43.8182L350.545 43.8182L350.545 87.6363L306.727 87.6363L306.727 43.8182ZM350.545 43.8182L394.364 43.8182L394.364 87.6364L350.545 87.6363L350.545 43.8182ZM394.364 43.8182L438.182 43.8182L438.182 87.6364L394.364 87.6364L394.364 43.8182ZM394.364 -1.91535e-06L438.182 0L438.182 43.8182L394.364 43.8182L394.364 -1.91535e-06ZM350.546 -3.83071e-06L394.364 -1.91535e-06L394.364 43.8182L350.545 43.8182L350.546 -3.83071e-06Z" fill="#1945DF"/>
<path d="M87.6364 43.8182L131.455 43.8182L131.455 87.6363L87.6364 87.6363L87.6364 43.8182ZM87.6364 -1.53228e-05L131.455 -1.34075e-05L131.455 43.8182L87.6364 43.8182L87.6364 -1.53228e-05ZM131.455 -1.34075e-05L175.273 -1.14921e-05L175.273 43.8182L131.455 43.8182L131.455 -1.34075e-05Z" fill="#1945DF"/>
<path d="M43.8182 175.273L87.6364 175.273L87.6364 219.091L43.8182 219.091L43.8182 175.273ZM5.52891e-05 131.455L43.8182 131.455L43.8182 175.273L5.33737e-05 175.273L5.52891e-05 131.455ZM43.8182 131.455L87.6364 131.455L87.6364 175.273L43.8182 175.273L43.8182 131.455ZM87.6364 131.455L131.455 131.455L131.455 175.273L87.6364 175.273L87.6364 131.455ZM131.455 131.455L175.273 131.455L175.273 175.273L131.455 175.273L131.455 131.455ZM219.091 131.455L262.909 131.455L262.909 175.273L219.091 175.273L219.091 131.455ZM219.091 87.6363L262.909 87.6363L262.909 131.455L219.091 131.455L219.091 87.6363ZM262.909 87.6363L306.727 87.6363L306.727 131.455L262.909 131.455L262.909 87.6363ZM262.909 131.455L306.727 131.455L306.727 175.273L262.909 175.273L262.909 131.455ZM306.727 87.6363L350.545 87.6363L350.545 131.455L306.727 131.455L306.727 87.6363ZM306.727 43.8182L350.545 43.8182L350.545 87.6363L306.727 87.6363L306.727 43.8182ZM306.727 -5.74606e-06L350.546 -3.83071e-06L350.545 43.8182L306.727 43.8182L306.727 -5.74606e-06ZM262.909 -7.66142e-06L306.727 -5.74606e-06L306.727 43.8182L262.909 43.8182L262.909 -7.66142e-06ZM219.091 -9.57677e-06L262.909 -7.66142e-06L262.909 43.8182L219.091 43.8182L219.091 -9.57677e-06ZM219.091 43.8182L262.909 43.8182L262.909 87.6363L219.091 87.6363L219.091 43.8182ZM175.273 -1.14921e-05L219.091 -9.57677e-06L219.091 43.8182L175.273 43.8182L175.273 -1.14921e-05Z" fill="#1945DF"/>
</svg>
